#tb 0: 1/44100
#media_type 0: audio
#codec_id 0: pcm_s16le
#sample_rate 0: 44100
#channel_layout_name 0: stereo
0,      45056,      45056,     4096,    16384, 0xe92bd835
0,      49152,      49152,     4096,    16384, 0x1126dca3
0,      53248,      53248,     4096,    16384, 0x9647edcf
0,      57344,      57344,     4096,    16384, 0x5cc345aa
0,      61440,      61440,     4096,    16384, 0x19d7bd51
0,      65536,      65536,     4096,    16384, 0x19eccef7
0,      69632,      69632,     4096,    16384, 0x4b68eeed
0,      73728,      73728,     4096,    16384, 0x0b3d1bfc
0,      77824,      77824,     4096,    16384, 0xe9b2e069
0,      81920,      81920,     4096,    16384, 0xcaa5590e
0,      86016,      86016,     4096,    16384, 0x47d0b227
